<svg width="17" height="22" viewBox="0 0 17 22" fill="none" xmlns="http://www.w3.org/2000/svg">
<path d="M8.50054 21C9.60054 21 10.5005 20.1 10.5005 19V18L6.50053 18.0005L6.50054 19C6.50054 19.5304 6.71125 20.0391 7.08633 20.4142C7.4614 20.7893 7.97011 21 8.50054 21ZM14.5005 15V10C14.5005 6.93 12.8605 4.36 10.0005 3.68V3C10.0005 2.17 9.33054 1.5 8.50054 1.5C7.67054 1.5 7.00054 2.17 7.00054 3V3.68C4.13054 4.36 2.50054 6.92 2.50054 10V15L1.21054 16.29C0.58054 16.92 1.02054 18 1.91054 18H15.0805C15.9705 18 16.4205 16.92 15.7905 16.29L14.5005 15Z" stroke="#1D1E25" stroke-width="1.5"/>
</svg>
