<svg width="20" height="20" viewBox="0 0 20 20" fill="none" xmlns="http://www.w3.org/2000/svg">
<path d="M19.2293 11.8677C17.9133 14.0637 14.9603 17.7498 10.0003 17.7498C9.03725 17.7498 8.08633 17.6037 7.17433 17.3147C6.77933 17.1897 6.56129 16.7688 6.68629 16.3738C6.81029 15.9778 7.23521 15.7618 7.62721 15.8848C8.39221 16.1268 9.19025 16.2498 10.0003 16.2498C14.2223 16.2498 16.7903 13.0198 17.9443 11.0938C18.3523 10.4178 18.3523 9.58076 17.9463 8.90676C17.6003 8.32376 17.1772 7.72773 16.7202 7.17873C16.4552 6.85973 16.4994 6.38683 16.8184 6.12283C17.1384 5.85783 17.6103 5.90175 17.8753 6.21975C18.3813 6.82875 18.8512 7.49174 19.2332 8.13674C19.9262 9.28374 19.9263 10.7157 19.2293 11.8677ZM8.06324 12.9978L1.53028 19.5308C1.38428 19.6768 1.19225 19.7508 1.00025 19.7508C0.808254 19.7508 0.616225 19.6778 0.470225 19.5308C0.177225 19.2378 0.177225 18.7627 0.470225 18.4697L3.64527 15.2947C2.31727 14.1497 1.3523 12.8367 0.769297 11.8657C0.0752971 10.7157 0.0752503 9.28384 0.77125 8.13284C2.08725 5.93684 5.04025 2.25076 10.0003 2.25076C11.8353 2.25076 13.5653 2.76969 15.1553 3.78469L18.4692 0.470727C18.7622 0.177727 19.2373 0.177727 19.5303 0.470727C19.8233 0.763727 19.8233 1.23876 19.5303 1.53176L8.0652 12.9969C8.0652 12.9969 8.06522 12.9978 8.06422 12.9978C8.06322 12.9978 8.06324 12.9968 8.06324 12.9978ZM7.60914 11.3308L11.3313 7.60867C10.9293 7.38167 10.4783 7.25076 10.0003 7.25076C8.48425 7.25076 7.25123 8.48376 7.25123 10.0008C7.25123 10.4778 7.38314 10.9288 7.60914 11.3308ZM4.70729 14.2317L6.5193 12.4197C6.0243 11.7167 5.75123 10.8818 5.75123 9.9988C5.75123 7.6558 7.65725 5.7488 10.0003 5.7488C10.8843 5.7488 11.7182 6.02187 12.4212 6.51687L14.0523 4.88577C12.7873 4.14477 11.4323 3.74783 10.0003 3.74783C5.77825 3.74783 3.21016 6.97783 2.05616 8.90383C1.64816 9.57983 1.64821 10.4168 2.05421 11.0908C2.59121 11.9878 3.48329 13.2007 4.70729 14.2317ZM12.7083 10.4348C12.5283 11.5948 11.5943 12.5298 10.4363 12.7088C10.0273 12.7718 9.74634 13.1547 9.80934 13.5637C9.86734 13.9347 10.1863 14.1997 10.5493 14.1997C10.5873 14.1997 10.6263 14.1967 10.6643 14.1907C12.4913 13.9087 13.9082 12.4918 14.1902 10.6638C14.2532 10.2538 13.9732 9.87189 13.5632 9.80789C13.1632 9.74689 12.7713 10.0248 12.7083 10.4348Z" fill="#555555"/>
</svg>
