<svg width="10" height="12" viewBox="0 0 10 12" fill="none" xmlns="http://www.w3.org/2000/svg">
<path d="M0.00390625 4.25H1.17057V0.75H2.33724L4.33224 4.25H7.00391V0.75H8.17057V4.25H9.33724V5.41667H8.17057V6.58333H9.33724V7.75H8.17057V11.25H7.00391L5.00307 7.75H2.33724V11.25H1.17057V7.75H0.00390625V6.58333H1.17057V5.41667H0.00390625V4.25ZM2.33724 4.25H2.99641L2.33724 3.10083V4.25ZM2.33724 5.41667V6.58333H4.33224L3.66724 5.41667H2.33724ZM7.00391 8.91667V7.75H6.33307L7.00391 8.91667ZM4.99724 5.41667L5.66807 6.58333H7.00391V5.41667H4.99724Z" fill="#F8F8F8"/>
</svg>
